<?xml version="1.0" encoding="UTF-8" standalone="no"?>
<svg
   xmlns:osb="http://www.openswatchbook.org/uri/2009/osb"
   xmlns:dc="http://purl.org/dc/elements/1.1/"
   xmlns:cc="http://creativecommons.org/ns#"
   xmlns:rdf="http://www.w3.org/1999/02/22-rdf-syntax-ns#"
   xmlns:svg="http://www.w3.org/2000/svg"
   xmlns="http://www.w3.org/2000/svg"
   xmlns:xlink="http://www.w3.org/1999/xlink"
   xmlns:sodipodi="http://sodipodi.sourceforge.net/DTD/sodipodi-0.dtd"
   xmlns:inkscape="http://www.inkscape.org/namespaces/inkscape"
   width="557"
   height="557"
   version="1.1"
   id="svg30"
   sodipodi:docname="Dice.svg"
   inkscape:version="0.92.3 (2405546, 2018-03-11)"
   inkscape:export-filename="C:\Users\jmarsden\OneDrive - Dyson\Pictures\KD-M\e_lantern.png"
   inkscape:export-xdpi="22.053679"
   inkscape:export-ydpi="22.053679">
  <sodipodi:namedview
     pagecolor="#ffffff"
     bordercolor="#666666"
     borderopacity="1"
     objecttolerance="10"
     gridtolerance="10"
     guidetolerance="10"
     inkscape:pageopacity="0"
     inkscape:pageshadow="2"
     inkscape:window-width="2880"
     inkscape:window-height="1526"
     id="namedview32"
     showgrid="false"
     inkscape:zoom="4.2992092"
     inkscape:cx="177.42573"
     inkscape:cy="454.94347"
     inkscape:window-x="-11"
     inkscape:window-y="2347"
     inkscape:window-maximized="1"
     inkscape:current-layer="layer4"
     showguides="true"
     inkscape:guide-bbox="true"
     inkscape:snap-text-baseline="true">
    <sodipodi:guide
       position="-145.72368,210.52632"
       orientation="0,1"
       id="guide5189"
       inkscape:locked="false" />
    <sodipodi:guide
       position="-337.5,200"
       orientation="0,1"
       id="guide5191"
       inkscape:locked="false" />
    <sodipodi:guide
       position="-155.37741,216.78405"
       orientation="0,1"
       id="guide5193"
       inkscape:locked="false" />
    <sodipodi:guide
       position="-196.85146,483.17832"
       orientation="0,1"
       id="guide5195"
       inkscape:locked="false" />
  </sodipodi:namedview>
  <metadata
     id="metadata36">
    <rdf:RDF>
      <cc:Work
         rdf:about="">
        <dc:format>image/svg+xml</dc:format>
        <dc:type
           rdf:resource="http://purl.org/dc/dcmitype/StillImage" />
        <dc:title></dc:title>
      </cc:Work>
    </rdf:RDF>
  </metadata>
  <defs
     id="defs34">
    <linearGradient
       osb:paint="solid"
       id="linearGradient4634">
      <stop
         id="stop4632"
         offset="0"
         style="stop-color:#ffffff;stop-opacity:1;" />
    </linearGradient>
    <radialGradient
       gradientUnits="userSpaceOnUse"
       gradientTransform="matrix(1,0,0,1.0050675,0,-1.4307058)"
       r="194.73685"
       fy="282.32894"
       fx="278.94737"
       cy="282.32894"
       cx="278.94737"
       id="radialGradient4638"
       xlink:href="#linearGradient4634"
       inkscape:collect="always" />
  </defs>
  <g
     inkscape:groupmode="layer"
     id="layer9"
     inkscape:label="General-D10"
     style="display:none">
    <g
       id="g5307"
       transform="translate(565.41932,118.30302)">
      <title
         id="title5303">Layer 1</title>
      <g
         id="layer1-0">
        <path
           d="m -377.71537,-106.22109 c -0.83647,0.0199 -1.69216,0.0655 -2.47885,0.24788 -8.41977,1.336 -12.69072,9.961806 -18.83925,18.095602 -6.95229,95.0121552 -16.77231,182.00768 -23.73511,277.136218 29.138,-2.18337 69.18372,-1.73519 110.30885,-2.29442 44.74222,-0.60683 88.34221,-3.66872 109.69008,-11.40272 43.99063,-15.938 77.93306,-56.29567 106.279188,-116.257453 C -183.627,6.2520686 -277.42468,-56.803126 -357.88418,-99.838176 c -6.99234,-2.915314 -13.97675,-6.507304 -19.83119,-6.382914 z m -37.9264,38.855885 c -52.11117,98.52932 -98.20391,179.158765 -150.77612,279.429235 -1.02064,26.94016 4.29467,42.44586 11.09285,52.30374 6.81394,9.87968 12.98905,12.43587 22.12372,11.83501 13.17479,-4.36672 29.73152,-16.10063 46.85025,-30.92216 6.49101,-5.78462 48.06193,-41.85095 51.62215,-49.82488 6.52315,-89.15134 12.51661,-173.15143 19.08715,-262.820945 z m 148.79287,4.70981 c 63.42877,39.355022 124.06739,78.933721 179.282291,111.610314 16.503199,9.76647 47.794207,21.348845 71.454343,28.382829 C -38.630099,54.535107 -64.330878,34.936131 -92.956617,20.819971 Z M -82.608901,66.306867 C -110.63181,125.53631 -146.32925,170.6236 -192.04913,189.38155 l 6.94078,225.63682 c 11.95004,-6.6711 14.20876,-10.66699 19.45797,-23.3012 L -9.7306992,105.59643 C -7.5552749,100.02398 -7.354965,96.41676 -10.783708,94.069985 -36.494348,86.875768 -58.58389,78.089138 -82.608901,66.306867 Z M -204.38189,193.84347 c -25.2228,7.56547 -65.76489,9.15791 -107.95293,9.72902 -35.80449,0.33913 -84.82328,-2.47886 -113.71812,2.72673 -16.87265,16.25728 -35.03687,33.63897 -52.79951,49.01972 -15.81585,13.24699 -32.01325,27.00563 -51.99397,33.34155 -2.45743,0.19833 -2.85663,-0.0793 -5.32952,-0.37283 7.40699,6.66711 15.19534,10.70666 23.61114,15.49381 l 284.44741,113.90216 c 1.49523,0.29151 17.25082,6.12768 30.11903,0.0615 l -6.38353,-223.90161 z"
           id="rect4823"
           inkscape:connector-curvature="0"
           style="fill:#000000;stroke-width:1.98307967"
           sodipodi:nodetypes="ccccccccccccccccccccccccccccccccccccccc" />
      </g>
    </g>
  </g>
  <g
     style="display:none"
     inkscape:label="Lantern"
     id="layer5"
     inkscape:groupmode="layer">
    <g
       id="g5204"
       transform="matrix(0.54602667,-0.27955507,0.27955507,0.54602667,35.477715,87.335824)">
      <path
         cx="-204.4408"
         cy="200.42105"
         r="10.032894"
         id="path5112-4-0"
         style="display:inline;fill:#000000;fill-opacity:1;stroke-width:6.28866005;stroke-miterlimit:4;stroke-dasharray:0, 10.2594989;stroke-dashoffset:0"
         d=""
         inkscape:connector-curvature="0" />
      <g
         id="g5212"
         transform="translate(-129.79131,25.93264)">
        <g
           id="g5220"
           transform="translate(-45.589779,10.25535)">
          <path
             sodipodi:nodetypes="cscssscccccccccccccccccccccccccccccccccccccccccccccccccccccccccccccccc"
             inkscape:connector-curvature="0"
             id="path5103"
             d="m 418.46406,68.582921 c 53.35774,-28.308537 78.63105,-2.007999 96.85215,36.460339 4.06518,8.58239 12.92081,15.68266 14.73108,27.52263 3.12101,20.43986 14.60012,21.95761 16.85735,39.7724 C 571.88726,369.509 545.19422,411.99393 494.03619,434.70727 416.529,469.11921 332.41615,370.65998 341.61586,242.82076 345.07657,194.73059 372.404,115.31174 418.46406,68.582921 Z m -0.41069,331.160409 7.27119,-10.38109 h 30.81747 30.81748 l 7.5158,10.73031 7.51579,10.73031 8.48666,-8.48666 8.48665,-8.48664 v -9.78749 -9.78749 c 3.41865,-2.11285 6.83731,-4.22569 10.25597,-6.33854 l -6.14505,-9.8398 -6.14505,-9.83978 6.25226,-13.72223 6.25226,-13.72222 v -46.56148 -46.56148 l 5.5921,-3.45611 5.5921,-3.45611 -2.56539,-6.68532 -2.5654,-6.68531 5.73721,-5.73721 5.73721,-5.73722 -12.69837,-11.91511 -12.69837,-11.91512 -20.61134,-25.30257 -20.61134,-25.30258 8.52524,-8.81266 3.91997,-11.11529 V 89.321979 L 489.17,76.582098 l -9.09535,-11.450549 -13.8651,-6.02292 -15.11036,-0.774615 -12.64326,4.488543 -7.43288,5.763378 -5.93383,7.247316 -5.16638,14.291414 1.64274,16.699525 5.7115,10.36029 3.82556,4.85898 -17.18676,22.41145 -17.18675,22.41144 -15.82938,17.02458 -15.82937,17.02458 5.86294,5.86295 5.86294,5.86293 -2.5654,6.68532 -2.56539,6.68532 5.5921,3.45611 5.5921,3.45611 v 47.15198 47.15198 l 5.59849,10.46087 5.59849,10.46088 -5.98888,9.81044 -6.48229,10.52632 11.37612,5.59588 0.40303,10.36185 0.266,9.70394 9.23886,9.52133 7.92308,6.45469 z"
             style="display:inline;fill:#000000;fill-opacity:1;stroke-width:5.23519754" />
          <circle
             r="31.907894"
             cy="308.6221"
             cx="456.14203"
             id="path5112"
             style="fill:#000000;fill-opacity:1;stroke-width:20;stroke-miterlimit:4;stroke-dasharray:0, 32.62857143;stroke-dashoffset:0" />
          <circle
             r="19.078947"
             cy="251.05627"
             cx="430.48413"
             id="path5112-4"
             style="display:inline;fill:#000000;fill-opacity:1;stroke-width:11.95876312;stroke-miterlimit:4;stroke-dasharray:0, 19.50986706;stroke-dashoffset:0" />
          <circle
             r="10.032894"
             cy="215.8589"
             cx="450.38547"
             id="path5112-4-0-5"
             style="display:inline;fill:#000000;fill-opacity:1;stroke-width:6.28866005;stroke-miterlimit:4;stroke-dasharray:0, 10.2594989;stroke-dashoffset:0" />
          <circle
             r="7.5657887"
             cy="187.24048"
             cx="464.03677"
             id="path5112-4-0-5-2"
             style="display:inline;fill:#000000;fill-opacity:1;stroke-width:4.74226809;stroke-miterlimit:4;stroke-dasharray:0, 7.73667115;stroke-dashoffset:0" />
          <ellipse
             ry="25"
             rx="23.930922"
             cy="92.997086"
             cx="456.55322"
             id="path5185"
             style="fill:#000000;fill-opacity:1;stroke-width:20;stroke-miterlimit:4;stroke-dasharray:0, 32.62857143;stroke-dashoffset:0" />
          <path
             style="fill:#ffffff;fill-opacity:1;stroke-width:9.30403614;stroke-miterlimit:4;stroke-dasharray:0, 15.17887113;stroke-dashoffset:0"
             d="m 494.51615,399.73558 -7.21063,-10.4233 -31.16852,-9.3e-4 -31.16852,-9.3e-4 -3.59865,5.2355 c -1.97926,2.87952 -5.17891,7.47724 -7.11034,10.21715 l -3.51169,4.98166 -4.28711,-3.45578 c -2.35791,-1.90046 -6.17117,-5.50058 -8.47392,-8.00005 l -4.18682,-4.5445 -0.30547,-8.86522 c -0.16801,-4.87587 -0.32502,-9.33462 -0.3489,-9.90834 -0.0355,-0.8536 -1.05694,-1.55117 -5.62212,-3.83963 l -5.5787,-2.79651 3.79571,-6.16221 c 6.5257,-10.59425 8.29039,-13.59029 8.28771,-14.07064 -0.001,-0.25586 -2.51312,-5.17336 -5.58153,-10.92779 l -5.57894,-10.46258 v -47.04821 -47.0482 l -5.10999,-3.11448 c -2.8105,-1.71297 -5.23014,-3.30887 -5.37697,-3.54646 -0.14684,-0.23758 0.79194,-3.20656 2.08618,-6.59773 1.29424,-3.39116 2.35316,-6.37147 2.35316,-6.6229 0,-0.25143 -2.54958,-3.01285 -5.66572,-6.1365 l -5.66572,-5.67935 2.04313,-2.2358 c 1.12372,-1.22968 8.26174,-8.9347 15.86226,-17.12225 12.99388,-13.99746 14.83542,-16.21288 30.8369,-37.0975 9.35977,-12.21606 17.01776,-22.34004 17.01776,-22.49772 0,-0.15768 -0.80524,-1.25778 -1.78942,-2.44467 -0.98418,-1.18688 -3.10901,-4.53662 -4.72183,-7.44386 l -2.93241,-5.2859 -0.84013,-7.97235 -0.84012,-7.97236 1.93115,-8.251624 4.02455,-8.135323 5.24393,-5.797729 c 6.18125,-6.834032 7.38191,-5.697129 13.69659,-7.920811 l 6.35926,-2.239383 7.46026,0.444936 7.46027,0.444935 6.73278,2.925862 6.73277,2.925862 4.55703,5.651274 4.55703,5.651275 1.88747,6.53263 c 1.75785,6.084038 1.88746,6.932339 1.88746,12.353352 0,5.631984 -0.0626,5.998864 -1.92932,11.314844 -1.91354,5.44917 -1.96471,5.53187 -6.25381,10.10774 -3.68225,3.92845 -4.24205,4.72799 -3.7694,5.38374 0.3053,0.42356 9.60992,11.88184 20.67693,25.46284 l 20.12184,24.69273 12.57625,11.76982 12.57624,11.76981 -5.60008,5.61355 c -3.08004,3.08746 -5.59967,5.81988 -5.59915,6.07205 4.6e-4,0.25216 1.04721,3.14075 2.32601,6.41908 1.27879,3.27833 2.32508,6.14258 2.32508,6.365 0,0.22243 -2.40742,1.89817 -5.34982,3.72386 l -5.34982,3.31946 v 46.4202 46.4202 l -6.30187,13.86522 c -3.46603,7.62587 -6.193,14.14891 -6.05995,14.49565 0.13306,0.34674 2.84862,4.81101 6.03457,9.9206 l 5.79266,9.29018 -5.07618,3.14804 -5.07617,3.14804 -0.006,9.77409 -0.006,9.77409 -8.26205,8.25248 c -4.54413,4.53887 -8.3646,8.24181 -8.48994,8.22877 -0.12533,-0.013 -3.47266,-4.7142 -7.43851,-10.447 z m -30.31683,-60.04723 c 1.45053,-0.36695 4.41672,-1.53826 6.59154,-2.60292 5.10713,-2.50013 11.00957,-8.22867 13.59562,-13.19504 5.99906,-11.52086 4.72161,-25.50747 -3.22619,-35.3231 -6.29809,-7.77823 -14.92943,-11.87392 -25.02329,-11.87392 -10.09387,0 -18.7252,4.09569 -25.02329,11.87392 -7.92173,9.78342 -9.20557,23.84003 -3.22619,35.3231 3.40559,6.54026 11.11775,12.92769 18.49686,15.31963 5.33027,1.7278 12.15183,1.91096 17.81494,0.47833 z m -25.85506,-71.01409 c 5.56953,-2.56938 9.96281,-8.2836 11.09566,-14.43185 1.51367,-8.21493 -2.97857,-16.88899 -10.59176,-20.45164 -9.82154,-4.59605 -21.26856,-0.53069 -25.8056,9.16474 -4.28091,9.1481 -0.46406,20.52181 8.4369,25.14087 3.21089,1.66625 5.26969,2.0757 9.76924,1.94289 3.62193,-0.1069 4.90233,-0.35322 7.09556,-1.36501 z m 16.41638,-43.56231 c 5.20436,-2.36401 7.24177,-8.60162 4.56447,-13.97426 -3.10673,-6.2344 -11.54241,-7.39747 -16.29078,-2.24609 -3.40769,3.69691 -3.76847,8.57522 -0.9431,12.75237 2.74213,4.05408 8.13145,5.52929 12.66941,3.46798 z m 13.27544,-31.35188 c 2.72054,-1.83337 3.79525,-3.89527 3.58658,-6.88108 -0.22002,-3.14804 -1.52298,-5.17371 -4.20942,-6.54423 -2.57653,-1.31445 -5.72719,-1.02058 -8.04958,0.75079 -5.83366,4.44955 -2.66887,13.7323 4.68177,13.7323 1.74785,0 2.85746,-0.29412 3.99065,-1.05778 z m -5.40252,-76.41364 c 4.04581,-1.05379 7.08915,-2.86297 10.52818,-6.25869 4.9196,-4.85762 7.39836,-10.99118 7.39836,-18.306852 0,-16.006867 -14.69944,-28.066816 -29.55888,-24.251171 -8.27051,2.123724 -14.84675,8.494492 -17.44341,16.898404 -1.16348,3.765527 -1.24355,10.881893 -0.16339,14.520419 1.88591,6.35273 6.78603,12.60756 12.09161,15.43455 4.91008,2.61625 11.66952,3.39018 17.14753,1.96334 z"
             id="path5226"
             inkscape:connector-curvature="0"
             sodipodi:nodetypes="cccccsccscscccscccccscsscccssscscccccssccccccccscscsccccccsccccscccccccscccscssscscscccscccsssssccssscccssscsc" />
        </g>
        <circle
           r="10.032894"
           cy="260.7851"
           cx="425.65967"
           id="path5112-4-0-5-9"
           style="display:inline;fill:#000000;fill-opacity:1;stroke-width:6.28866005;stroke-miterlimit:4;stroke-dasharray:0, 10.2594989;stroke-dashoffset:0" />
      </g>
    </g>
  </g>
  <g
     inkscape:groupmode="layer"
     id="layer10"
     inkscape:label="Number 1"
     style="display:none">
    <text
       xml:space="preserve"
       style="font-style:normal;font-weight:normal;font-size:205.80311584px;line-height:1.25;font-family:sans-serif;letter-spacing:0px;word-spacing:0px;fill:#ffffff;fill-opacity:1;stroke:none;stroke-width:5.14507771"
       x="93.921654"
       y="350.83881"
       id="text5322"
       transform="rotate(-30)"><tspan
         sodipodi:role="line"
         id="tspan5320"
         x="93.921654"
         y="350.83881"
         style="font-style:normal;font-variant:normal;font-weight:normal;font-stretch:normal;font-size:205.80311584px;font-family:'Futura Hv';-inkscape-font-specification:'Futura Hv, Normal';font-variant-ligatures:normal;font-variant-caps:normal;font-variant-numeric:normal;font-feature-settings:normal;text-align:start;writing-mode:lr-tb;text-anchor:start;stroke-width:5.14507771">9</tspan></text>
  </g>
  <g
     inkscape:groupmode="layer"
     id="layer11"
     inkscape:label="Bar"
     style="display:none">
    <rect
       style="fill:#ffffff;fill-opacity:1;stroke-width:20;stroke-miterlimit:4;stroke-dasharray:0, 32.62857143;stroke-dashoffset:0"
       id="rect5325"
       width="125"
       height="22.368422"
       x="99.533867"
       y="369.17688"
       transform="rotate(-29.660027)" />
  </g>
  <g
     inkscape:label="General-D6"
     id="layer6"
     inkscape:groupmode="layer"
     style="display:inline">
    <rect
       id="rect24"
       rx="68"
       height="549"
       width="549"
       y="4"
       x="4"
       style="fill:#ffffff;stroke:#000000;stroke-width:4;fill-opacity:1;stroke-miterlimit:4;stroke-dasharray:none" />
    <path
       d="M 484.32566,487.89367 68.801475,72.369488 M 71.358547,487.89367 486.88272,72.369488"
       id="path26"
       inkscape:connector-curvature="0"
       style="stroke:#000000;stroke-width:25.57071877;stroke-linecap:round;stroke-miterlimit:4;stroke-dasharray:0, 41.71680107;stroke-dashoffset:0" />
    <rect
       y="86.605263"
       x="84.210526"
       height="391.44736"
       width="389.47369"
       id="rect4630"
       style="fill:url(#radialGradient4638);fill-opacity:1;stroke-width:20;stroke-miterlimit:4;stroke-dasharray:0, 32.62857143;stroke-dashoffset:0" />
    <path
       d="m 410.52634,457.65789 c -9.71697,7.22451 -56.16799,8.80823 -67.64187,12.67644 -11.47388,3.86821 -49.40235,30.7315 -61.51,30.86476 -12.10765,0.13326 -50.61821,-25.88871 -62.17445,-29.50344 -11.55623,-3.61472 -58.03086,-4.17567 -67.90448,-11.18455 -9.87362,-7.00889 -25.73399,-50.69704 -32.9585,-60.41401 -7.22451,-9.71696 -44.493555,-37.48787 -48.361763,-48.96174 -3.868209,-11.47388 8.979738,-56.14083 8.846476,-68.24848 -0.133262,-12.10765 -13.961225,-56.48098 -10.346496,-68.03722 3.614729,-11.55624 40.263513,-40.14073 47.272393,-50.01435 7.00889,-9.87362 21.90382,-53.90028 31.62079,-61.12478 9.71696,-7.224512 56.16799,-8.808236 67.64187,-12.676445 11.47387,-3.868208 49.40235,-30.731497 61.50999,-30.864759 12.10765,-0.133261 50.61821,25.888709 62.17445,29.503438 11.55624,3.614729 58.03086,4.175669 67.90448,11.184556 9.87363,7.00888 25.734,50.69704 32.9585,60.414 7.22451,9.71697 44.49356,37.48788 48.36177,48.96175 3.86821,11.47388 -8.97974,56.14083 -8.84648,68.24848 0.13326,12.10765 13.96123,56.48098 10.3465,68.03722 -3.61473,11.55624 -40.26351,40.14073 -47.2724,50.01435 -7.00888,9.87362 -21.90382,53.90027 -31.62078,61.12478 z"
       inkscape:randomized="0"
       inkscape:rounded="0.17594422"
       inkscape:flatsided="false"
       sodipodi:arg2="1.2456311"
       sodipodi:arg1="0.9314718"
       sodipodi:r2="200.13776"
       sodipodi:r1="220.52824"
       sodipodi:cy="280.6842"
       sodipodi:cx="278.94739"
       sodipodi:sides="10"
       id="path4656"
       style="fill:#000000;fill-opacity:1;stroke-width:20;stroke-miterlimit:4;stroke-dasharray:0, 32.62857143;stroke-dashoffset:0"
       sodipodi:type="star" />
    <rect
       style="fill:none;fill-opacity:1;stroke:#000000;stroke-width:10;stroke-miterlimit:4;stroke-dasharray:none;stroke-dashoffset:0;stroke-opacity:0.99526068"
       id="rect5329"
       width="467.41882"
       height="465.34213"
       x="45.476673"
       y="46.000694" />
  </g>
  <g
     style="display:none"
     inkscape:label="Body"
     id="layer1"
     inkscape:groupmode="layer">
    <g
       style="fill:#ffffff;fill-opacity:1;stroke:none"
       transform="matrix(0.16520912,0,0,-0.16520912,65.955768,467.53425)"
       id="g4611">
      <path
         style="fill:#ffffff;fill-opacity:1"
         inkscape:connector-curvature="0"
         d="m 1160,1971 c -73,-16 -119,-55 -120,-103 0,-20 -8,-32 -31,-43 -16,-9 -29,-20 -27,-25 2,-5 39,-46 83,-92 44,-46 98,-105 120,-133 22,-27 54,-66 72,-85 31,-34 33,-34 107,-31 59,2 82,-2 113,-18 52,-28 65,-40 96,-86 25,-36 27,-48 27,-140 v -100 l 81,-77 c 44,-43 84,-78 88,-78 15,0 33,29 40,63 13,62 69,37 135,-60 19,-28 36,-43 50,-43 19,0 127,66 134,83 2,4 9,7 15,8 22,1 132,86 135,104 2,10 -1,27 -6,39 -6,11 -34,70 -62,130 -45,95 -133,252 -149,266 -4,3 -20,25 -36,49 -41,61 -118,136 -185,180 -54,35 -57,36 -156,36 -60,0 -107,-5 -115,-11 -8,-7 -28,-15 -46,-18 -30,-7 -32,-5 -57,46 -34,70 -53,92 -101,117 -44,22 -150,34 -205,22 z"
         id="path4603" />
      <path
         style="fill:#ffffff;fill-opacity:1"
         inkscape:connector-curvature="0"
         d="m 655,1691 c -38,-22 -81,-45 -95,-53 -71,-36 -126,-117 -187,-273 -19,-49 -41,-104 -49,-122 -8,-17 -14,-37 -14,-45 0,-8 -4,-18 -9,-23 -15,-18 -41,-113 -41,-154 0,-38 4,-44 98,-123 53,-46 109,-91 123,-100 25,-16 27,-16 46,5 11,12 42,56 68,97 43,68 79,109 97,110 3,0 9,-18 13,-40 13,-80 41,-134 83,-164 30,-22 47,-27 67,-22 15,4 94,74 192,173 l 166,166 -7,66 c -9,80 -9,71 0,154 l 7,67 -59,63 c -32,35 -81,91 -107,125 -63,80 -144,120 -257,128 -61,4 -69,3 -135,-35 z"
         id="path4605" />
      <path
         style="fill:#ffffff;fill-opacity:1"
         inkscape:connector-curvature="0"
         d="m 1330,1363 c -37,-14 -60,-54 -60,-102 0,-86 54,-127 160,-119 64,5 100,26 100,60 0,42 -34,119 -62,143 -23,19 -40,25 -76,24 -26,0 -54,-3 -62,-6 z"
         id="path4607" />
      <path
         style="fill:#ffffff;fill-opacity:1"
         inkscape:connector-curvature="0"
         d="M 1200,1012 C 1164,980 1092,910 1040,856 988,802 919,742 886,722 820,681 810,662 810,581 c 0,-47 4,-61 23,-79 13,-12 30,-22 38,-22 8,0 25,-6 39,-13 14,-7 72,-28 130,-46 58,-18 124,-39 148,-47 38,-12 52,-11 117,5 40,10 78,22 85,26 6,4 39,11 73,16 141,19 201,30 211,38 6,5 28,11 48,15 22,4 42,15 48,26 5,10 10,89 10,175 v 156 l -89,87 c -91,89 -155,144 -172,150 -5,2 -32,-4 -59,-14 -47,-17 -52,-17 -103,-1 -30,9 -63,17 -73,17 -11,0 -49,-26 -84,-58 z"
         id="path4609" />
    </g>
  </g>
  <g
     style="display:none"
     inkscape:label="Arms"
     id="layer2"
     inkscape:groupmode="layer">
    <g
       style="fill:#ffffff;fill-opacity:1;stroke:none"
       transform="matrix(0.16461124,0,0,-0.16461124,42.721176,483.3391)"
       id="g4686">
      <path
         style="fill:#ffffff;fill-opacity:1"
         inkscape:connector-curvature="0"
         d="m 923,2092 c -25,-4 -39,-38 -28,-71 7,-23 97,-111 215,-213 41,-35 83,-80 93,-100 17,-35 17,-39 1,-62 -19,-30 -42,-33 -87,-10 -30,16 -116,73 -127,84 -3,3 -34,28 -70,55 -36,27 -102,78 -148,112 -89,68 -119,76 -152,43 -46,-46 -23,-72 198,-221 166,-112 203,-150 182,-188 -15,-29 -70,-27 -118,2 -20,13 -45,27 -56,30 -10,4 -56,32 -102,62 -102,68 -126,77 -159,65 -41,-15 -33,-52 23,-100 26,-23 56,-46 67,-51 11,-5 34,-18 50,-29 17,-11 39,-24 50,-30 111,-57 145,-86 145,-122 v -30 l -62,4 c -58,4 -102,13 -201,41 -52,14 -91,0 -95,-35 -5,-44 29,-60 283,-129 65,-18 131,-38 145,-46 14,-7 29,-13 33,-13 5,0 65,-38 135,-84 70,-46 159,-102 198,-125 87,-51 141,-107 227,-236 36,-55 79,-116 95,-135 l 29,-35 44,30 c 59,39 184,147 237,204 64,68 102,130 102,168 0,29 -9,39 -82,95 -138,105 -162,140 -173,253 -8,88 -8,84 1,334 5,147 3,182 -11,235 -19,66 -27,76 -65,76 -19,0 -30,-9 -42,-32 -18,-36 -48,-154 -48,-190 0,-13 -9,-42 -20,-65 -38,-84 -96,-56 -286,140 -143,147 -338,314 -373,319 -14,2 -36,2 -48,0 z"
         id="path4682" />
      <path
         style="fill:#ffffff;fill-opacity:1"
         inkscape:connector-curvature="0"
         d="m 2197,803 c -14,-15 -54,-62 -90,-103 -35,-41 -84,-91 -108,-111 -24,-20 -64,-53 -88,-73 -24,-20 -68,-53 -98,-73 -51,-34 -53,-36 -37,-54 26,-28 154,-27 220,3 48,21 214,176 214,200 0,6 6,19 14,27 31,34 37,174 9,202 -7,7 -19,1 -36,-18 z"
         id="path4684" />
    </g>
  </g>
  <g
     style="display:none"
     inkscape:label="Legs"
     id="layer3"
     inkscape:groupmode="layer">
    <g
       style="fill:#ffffff;fill-opacity:1;stroke:none"
       transform="matrix(0.16735629,0,0,-0.16735629,61.757693,465.04872)"
       id="g4717">
      <path
         style="fill:#ffffff;fill-opacity:1"
         inkscape:connector-curvature="0"
         d="m 1045,1964 c -51,-18 -102,-41 -138,-61 -32,-17 -81,-20 -148,-9 -41,7 -49,6 -69,-14 -19,-19 -22,-30 -18,-90 5,-90 25,-115 83,-104 22,4 86,6 143,5 103,-3 148,6 242,46 61,26 65,30 68,55 3,29 -57,152 -84,173 -23,17 -29,17 -79,-1 z"
         id="path4713" />
      <path
         style="fill:#ffffff;fill-opacity:1"
         inkscape:connector-curvature="0"
         d="m 1054,1623 c -38,-7 -105,-17 -149,-23 -93,-11 -183,-27 -196,-35 -14,-9 -11,-55 7,-115 15,-51 15,-111 -1,-153 -5,-12 0,-18 20,-23 39,-10 30,-45 -15,-57 -19,-5 -39,-13 -44,-17 -15,-15 -8,-69 13,-96 38,-48 36,-117 -5,-211 -8,-17 -14,-38 -14,-47 0,-8 -8,-19 -17,-25 -16,-8 -18,-26 -18,-123 0,-62 -4,-122 -8,-133 -6,-16 -2,-28 18,-49 29,-32 18,-31 235,-5 90,11 135,10 318,-5 117,-10 228,-22 245,-27 56,-16 447,-11 523,7 70,16 133,43 151,66 19,22 25,83 13,126 -20,76 -145,181 -240,203 -56,13 -130,36 -190,59 -30,12 -67,25 -81,29 -68,22 -231,112 -268,149 -38,38 -81,101 -81,120 0,11 7,25 15,32 19,16 11,44 -21,79 -28,30 -30,60 -7,104 20,39 41,56 70,57 40,0 53,11 53,44 0,32 -29,74 -53,78 -51,7 -217,1 -273,-9 z"
         id="path4715" />
    </g>
  </g>
  <g
     style="display:none"
     inkscape:label="Head"
     id="layer4"
     inkscape:groupmode="layer">
    <g
       style="fill:#ffffff;fill-opacity:1;stroke:none"
       transform="matrix(0.16598704,0,0,-0.16598704,66.689499,476.98154)"
       id="g4744">
      <path
         style="fill:#ffffff;fill-opacity:1"
         inkscape:connector-curvature="0"
         d="m 1192,2049 c -110,-14 -219,-67 -294,-142 -36,-35 -119,-165 -131,-202 -32,-105 -54,-153 -91,-193 -26,-28 -30,-40 -30,-88 0,-41 4,-58 16,-65 13,-7 15,-16 8,-40 -9,-31 4,-79 22,-79 15,0 9,-26 -10,-43 -10,-10 -27,-17 -37,-17 -10,0 -33,-10 -51,-22 -28,-19 -34,-31 -40,-75 -9,-73 0,-100 35,-108 16,-3 37,-15 47,-26 16,-18 16,-20 1,-37 -25,-28 -21,-43 24,-84 41,-37 41,-39 35,-86 -19,-123 -20,-115 14,-150 41,-41 72,-41 171,-1 88,36 131,35 169,-6 34,-37 40,-127 11,-183 -12,-23 -21,-50 -21,-60 0,-33 108,-68 170,-55 33,6 100,67 165,148 96,120 164,167 285,196 96,22 115,31 136,64 15,23 15,27 0,50 -9,13 -25,33 -36,43 l -21,19 24,29 c 36,44 38,59 11,85 -31,29 -30,41 6,69 28,22 30,27 30,91 v 69 l 37,15 c 84,35 105,87 111,273 3,113 1,152 -12,191 -9,28 -16,55 -16,61 0,6 -11,36 -25,65 -41,90 -108,146 -260,219 -78,38 -140,55 -250,71 -102,15 -115,16 -203,4 z"
         id="path4742" />
    </g>
  </g>
  <g
     inkscape:groupmode="layer"
     id="layer8"
     inkscape:label="Waist"
     style="display:inline">
    <g
       id="g5256"
       transform="matrix(0.18010497,0,0,-0.18010497,49.982337,505.66799)"
       style="fill:#ffffff;fill-opacity:1;stroke:none">
      <path
         id="path5252"
         d="m 1060,1800 c -238,-33 -361,-65 -471,-120 -92,-47 -123,-76 -138,-129 -6,-19 -30,-61 -53,-95 l -43,-61 1,-95 c 1,-83 5,-101 28,-142 15,-26 40,-58 56,-72 35,-29 153,-86 178,-86 10,0 22,-4 28,-9 8,-8 35,-15 149,-41 22,-5 59,-9 81,-10 38,0 42,2 48,30 8,44 -4,117 -23,133 -15,14 -44,25 -161,62 -71,23 -147,71 -164,104 -15,27 -19,55 -17,108 3,98 191,184 516,238 123,21 378,17 505,-8 161,-30 305,-88 339,-136 35,-48 47,-113 33,-168 -16,-58 -44,-88 -120,-129 -46,-25 -58,-36 -60,-59 -2,-16 2,-31 10,-36 8,-5 13,-30 13,-71 v -63 l 40,-3 c 48,-3 210,55 265,95 84,63 105,110 105,238 -1,176 -61,287 -208,383 -26,18 -54,32 -62,32 -8,0 -16,4 -19,9 -13,20 -188,68 -300,81 -45,6 -108,14 -141,19 -71,11 -337,11 -415,1 z"
         inkscape:connector-curvature="0"
         style="fill:#ffffff;fill-opacity:1" />
      <path
         id="path5254"
         d="m 1151,1181 c -58,-15 -75,-41 -81,-129 -4,-52 -14,-93 -28,-121 -24,-46 -28,-88 -9,-111 7,-9 29,-26 51,-39 37,-24 38,-25 33,-70 -3,-25 -15,-68 -27,-94 -12,-26 -20,-58 -18,-70 3,-19 9,-22 51,-21 26,0 51,4 56,10 5,5 17,41 27,79 9,39 21,83 27,99 14,39 77,82 132,90 74,12 77,7 152,-164 26,-60 51,-80 99,-80 55,0 63,20 25,68 -46,59 -91,138 -91,159 0,26 15,38 69,55 61,18 75,43 68,126 -6,86 -25,140 -57,164 -22,16 -32,17 -90,7 -72,-13 -163,-1 -206,28 -28,18 -134,26 -183,14 z"
         inkscape:connector-curvature="0"
         style="fill:#ffffff;fill-opacity:1" />
    </g>
  </g>
  <g
     inkscape:groupmode="layer"
     id="layer7"
     inkscape:label="Number"
     style="display:none">
    <text
       xml:space="preserve"
       style="font-style:normal;font-weight:normal;font-size:340.99740601px;line-height:1.25;font-family:sans-serif;letter-spacing:0px;word-spacing:0px;fill:#ffffff;fill-opacity:1;stroke:none;stroke-width:8.52493572"
       x="183.2204"
       y="395.10977"
       id="text5235"><tspan
         sodipodi:role="line"
         id="tspan5233"
         x="183.2204"
         y="395.10977"
         style="font-style:normal;font-variant:normal;font-weight:normal;font-stretch:normal;font-size:341px;font-family:'Futura Hv';-inkscape-font-specification:'Futura Hv, Normal';font-variant-ligatures:normal;font-variant-caps:normal;font-variant-numeric:normal;font-feature-settings:normal;text-align:start;writing-mode:lr-tb;text-anchor:start;stroke-width:8.52493572">9</tspan></text>
  </g>
</svg>
